<svg xmlns="http://www.w3.org/2000/svg" xmlns:xlink="http://www.w3.org/1999/xlink" viewBox="0 0 938 293.1" xmlns:v="https://vecta.io/nano"><g fill="#fffffe"><path d="M27.6 129.1L17.5 133c-2.6 1.3-3.7 3.1-3.4 5.3.2 7.5 6.4 13 18.5 16.5l-.9-87.4c-.8-6.5-4.4-11.2-10.9-14h52.4c-4.3 3.4-6.4 7.3-6.4 11.8l1.4 90.2c7.7-2.6 16.9-7.2 27.7-13.7V63c0-4.7-.4-7.7-1.1-9.2-1.5-2.8-5.2-5.6-11.2-8.4l54.1-.8c-6.9 6-10.6 11.1-11.2 15.4l1.1 63c8.2-4.3 14.3-6.4 18.2-6.4s8.9 1.1 14.8 3.4c-6.6 5-9.8 11.5-9.6 19.3-3.8-5.2-7.8-7.8-12.1-7.8-3 0-6.8 1.3-11.3 3.9l2 101.1c0 4.9 4.2 9 12.6 12.3l-59.1-.8c7.1-3 11.4-7.5 12.9-13.4v-79c-10.4 5.8-19.7 9.7-27.7 11.8V223c.9 5.6 5.3 10 13.2 13.2l-64.1-.8c10.3-3.2 15.4-8.8 15.4-16.8v-54.1c-18.1-4.3-27-14.4-26.6-30.2 6.5-3.5 12.1-5.3 16.8-5.3 1.4-.1 3 0 4.6.1z"/><path d="M163.5 113.5l-8.4-11.2c-3-3.9-4.5-8.1-4.5-12.6 0-1.7.5-3.1 1.4-4.2 1.9-2.4 11-8.5 27.4-18.2 6.2 4.5 12.7 9.4 19.6 14.8 9.9 7.8 14.4 14.2 13.4 19l-1.1 63.9 10.4.6-20.5 22.7c-4.8 3.4-8.2 5-10.3 5-1.9 0-2.6-1.1-2-3.4v-10.1L171.3 191c-8.1 1.5-15.7-14.7-22.7-48.7 3.2-6.3 9-11.4 17.4-15.1l18.5-8.4c-6.3 6.9-9.4 12.3-9.2 16.2-.4 2.6-.6 5.2-.6 7.8 0 12.5 2.7 22.4 8.1 29.7 3 .4 5-1.3 6.2-5V85.4l-4.2 2.2c-.9.6-3.5 2.1-7.6 4.8-6.9 4.3-10.4 8.1-10.4 11.5l2.5 9.2-5.8.4z"/><use xlink:href="#B"/><use xlink:href="#B" x="65"/><path d="M355.9 107.3h41.2c-5.2 1.1-7.9 3.5-8.1 7.3l3.4 19.6c1.5 8.8 3.1 13.3 4.8 13.4 1.1-.2 8.4-14.4 21.8-42.6-.2-2-.7-3.2-1.4-3.6l-7-3.3 33 .6-35 63.7c-21.5 38.6-34 57.8-37.5 57.8-.2 0-.4-.1-.6-.3-23.3-2.1-36.7-3.7-40.1-5-8.4-1.1-18.3-4.9-29.7-11.5-1.9-1.1-2.8-2.2-2.8-3.4 0-1.3 1.1-3.3 3.4-5.9 4.7-5.4 7.2-8.4 7.6-9 7.8-.4 14.2-.6 19-.6 4.7 0 7.9.2 9.8.6-.2 1.3-.8 2.1-2 2.5-2.2 1.1-8.1 2.8-17.6 5l-5 6.4c6.5 3.3 23.3 4.9 50.4 4.7l14-24.6c1.3-3.3 2-6.8 2-10.3 0-8.9-5.4-27.7-16.2-56.4-1.6-1.8-4-3.4-7.4-5.1zm230.8-44.5l-6.2 63.3-30.2 16.2-21.6-22.4.3 59.9-10.6-16.2-1.1-2.2 1.7 73.1-9-14-6.2 67.2L483.7 172l10.1 6.7-10.6-69.5 14 6.2-11.8-98.3h43.1v15.1L555.4 21l31.3 41.8zm-33 54.9l-3.4-82.1-21.8 9.1.3 70.2 19.3 10.1 5.6-7.3zm114.5 67.7c.9 4.7-4.2 9.9-15.4 15.7-9.3 4.9-17 7.7-23 8.4l-5-.8c-18.9-14.6-28.8-23.9-30-28-.4-8.8.5-30.4 2.5-65 12.9-9.3 26.2-16.4 40.1-21.3l19.9 13.7 2.2 3.6c4.1 3.9 6.5 12.3 7.3 25.2.4 6.6.9 22.8 1.4 48.5zm-26.8 6.8c0-48.7-1.8-77.6-5.3-86.5l-9 5.3c-3.2 2.4-5.2 4.9-6.2 7.6l1.4 73.7c1.3 3.7 3.8 6.4 7.6 8.1 5.6-1.8 9.4-4.5 11.5-8.2zm85.4-101.4h-15.7l-2.5 119a4.56 4.56 0 0 0-.6 2.2c0 3.4 4.5 8.9 13.4 16.5l-23-8.4c-9-3.4-13.7-7.4-14.3-12l1.4-118.5H662c16.1-9 32.1-24.5 48.2-46.5l-.6 35.6h14.6l2.6 12.1z"/><path d="M783.4 90.8h-15.7l-2.5 119a4.56 4.56 0 0 0-.6 2.2c0 3.4 4.5 8.9 13.4 16.5l-23-8.4c-9-3.4-13.7-7.4-14.3-12l1.4-118.5h-23.5c16.1-9 32.1-24.5 48.2-46.5l-.6 35.6h14.6l2.6 12.1zm75.3 38.3l-7 14.6c-7.3-4.3-15.6-6.4-24.9-6.4-5.6 0-9.1.7-10.4 2.2l2 45.9c1.5 3.2 4.7 6.1 9.5 8.7 3.7-4.9 6.3-10.9 7.6-18.2.2-.7.7-5.5 1.4-14.3l12.3 15.7-17.1 24.4-14.3.3-28.3-24.6c-1.5-7.1-2.2-15.2-2.2-24.4 0-13.1 1.3-26.8 3.9-41.2l31.4-24.6c2.2-.7 4.1-.7 5.6.3l22.7 14.8 7.8 26.8zm-20.2 1.7l-14.3-32.2c-1.3-1.7-2.1-2.5-2.5-2.5-.7 0-1.5.7-2.2 2l-3.4 31.9c10.5-.6 18-.3 22.4.8z"/><use xlink:href="#B" x="638.7"/></g><defs ><path id="B" d="M223.1 74c9.5-6.5 20.3-14.7 32.5-24.4v25.2c9.7-8.4 16.1-12.6 19-12.6.9 0 1.6.3 2 .8l13.2 23c1.5 1.7 2.2 3.4 2.2 5 0 1.9-.9 3.1-2.8 3.6l-25.8 15.1v-1.1c3.9-3.7 6.2-7.2 6.7-10.4-.7-2.8-2.1-6.3-3.9-10.4-2.4-5.2-4.3-7.7-5.6-7.3-1.1.2-2.5 1.4-4.2 3.6-.7 27.8-.3 55.3 1.4 82.3.4 6 3.3 9.6 8.7 10.9h-11.9-11.9-7.7-7.7c4.9-2.1 7.7-3.7 8.7-5 .7-.7 1.1-2.6 1.1-5.6V73.4l-14 .6z"/></defs></svg>